<svg width="156" height="155" viewBox="0 0 156 155" fill="none" xmlns="http://www.w3.org/2000/svg">
<path d="M10.1094 96.9281L8.70874 91.5394L7.37259 91.8792L8.7733 97.2679L10.1094 96.9281Z" fill="#181A18"/>
<path d="M8.32334 108.033L9.09912 109.543L16.7824 108.329C17.8121 108.167 18.7934 107.911 19.4566 107.578L19.8356 107.387L20.0376 107.78L19.6586 107.971C18.9954 108.304 18.2081 108.938 17.4693 109.665L11.9436 115.076L12.7275 116.601L26.6553 114.7L25.831 113.096L16.3013 114.507C15.6358 114.604 15.042 114.724 14.442 115.026L14.0472 115.225L13.8452 114.832L14.24 114.633C14.8716 114.316 15.3589 113.833 15.7598 113.453L21.8363 107.568L21.0686 106.074L12.6729 107.448C12.1264 107.545 11.4533 107.666 10.8217 107.984L10.4269 108.182L10.2168 107.774L10.6116 107.575C11.2116 107.273 11.66 106.87 12.1395 106.411L18.9056 99.6244L18.0732 98.0052L8.32334 108.033Z" fill="#181A18"/>
<path d="M22.5443 118.978C19.3178 121.867 19.0251 125.212 21.7096 128.147C24.3942 131.081 27.777 131.113 31.0036 128.224C34.2301 125.336 34.5347 122.003 31.8501 119.069C29.1656 116.135 25.7708 116.09 22.5443 118.978ZM23.7732 120.322C26.3413 118.023 28.7666 118.081 30.6517 120.142C32.5369 122.202 32.3427 124.582 29.7746 126.881C27.2066 129.18 24.7932 129.134 22.9081 127.074C21.0229 125.013 21.2052 122.62 23.7732 120.322Z" fill="#181A18"/>
<path d="M32.0859 137.233L34.9412 133.19L37.6022 135.029C37.733 135.12 37.893 135.23 38.0486 135.316L37.5241 140.991L39.0218 142.026L39.2849 139.05C39.4509 137.252 39.561 136.147 38.8633 135.45L39.2054 135.149C39.3871 135.382 39.5833 135.625 39.9177 135.856C40.8483 136.499 42.6684 136.618 44.1572 134.511C45.6869 132.345 45.0851 130.103 42.5114 128.324L38.3091 125.42L30.6609 136.248L32.0859 137.233ZM35.8692 131.876L38.8061 127.719L41.5834 129.638C43.1829 130.743 43.6822 132.12 42.7032 133.506C41.7242 134.892 40.246 134.901 38.6465 133.796L35.8692 131.876Z" fill="#181A18"/>
<path d="M46.0997 145.506L47.9427 141.084L50.8741 139.932L52.679 148.189L54.5448 148.95L52.4591 139.3L59.3181 136.581L57.2559 135.74L51.3017 137.988C49.7304 138.588 49.1144 138.871 48.4103 139.595L48.0419 139.331C48.7924 138.587 49.2349 137.985 49.643 137.006L51.2004 133.27L49.531 132.589L44.4303 144.825L46.0997 145.506Z" fill="#181A18"/>
<path d="M73.7786 152.297L75.4753 152.319L77.9426 144.963C78.274 143.977 78.4993 142.99 78.5093 142.248L78.515 141.824L78.9568 141.83L78.9511 142.254C78.9412 142.996 79.14 143.989 79.4449 144.983L81.6965 152.401L83.4109 152.424L88.1484 139.228L86.3457 139.204L83.2012 148.284C82.9806 148.918 82.8137 149.499 82.8047 150.171L82.7988 150.612L82.3569 150.607L82.3628 150.165C82.3723 149.458 82.169 148.801 82.017 148.269L79.5982 140.141L77.9191 140.119L75.2656 148.18C75.0994 148.708 74.8962 149.36 74.8868 150.067L74.8808 150.509L74.4213 150.503L74.4272 150.061C74.4362 149.389 74.285 148.804 74.0991 148.165L71.1991 139.006L69.3787 138.982L73.7786 152.297Z" fill="#181A18"/>
<path d="M91.8974 151.088L93.5983 150.761L91.0389 137.753L89.3379 138.081L91.8974 151.088Z" fill="#181A18"/>
<path d="M95.6474 136.795L96.1913 138.233L100.468 136.65L104.613 147.612L106.205 147.023L102.06 136.062L106.32 134.485L105.776 133.047L95.6474 136.795Z" fill="#181A18"/>
<path d="M117.281 141.632L113.994 136.559L119.546 133.038L122.834 138.111L124.297 137.183L117.087 126.058L115.624 126.986L118.672 131.688L113.119 135.209L110.071 130.507L108.609 131.435L115.818 142.559L117.281 141.632Z" fill="#181A18"/>
<path d="M136.638 125.376L131.083 121.205C129.825 120.26 128.847 119.879 127.976 119.534L128.16 119.12C129.049 119.5 129.932 119.743 131.053 119.966L138.444 121.339L139.423 120.063L136.101 113.39C135.582 112.382 135.108 111.606 134.499 110.861L134.853 110.575C135.423 111.312 136.057 112.142 137.314 113.086L142.869 117.258L143.945 115.856L133.345 107.895L132.237 109.339L135.983 117.259C136.449 118.249 136.934 118.923 137.513 119.358L137.867 119.624L137.598 119.974L137.244 119.709C136.665 119.274 135.878 118.992 134.789 118.815L126.07 117.373L124.961 118.817L135.561 126.778L136.638 125.376Z" fill="#181A18"/>
<path d="M149.985 102.808L148.516 102.152L145.5 108.761L141.643 107.039L144.438 100.912L142.97 100.257L140.174 106.383L136.333 104.668L139.349 98.0591L137.88 97.4033L134.145 105.588L146.25 110.993L149.985 102.808Z" fill="#181A18"/>
<path d="M147.435 90.9872L146.034 96.3759L147.37 96.7157L148.771 91.327L147.435 90.9872Z" fill="#181A18"/>
<path d="M17.8068 35.3607L14.2298 39.6274L15.2958 40.5018L18.8727 36.235L17.8068 35.3607Z" fill="#181A18"/>
<path d="M29.3379 31.9192L25.5929 27.1741L30.7971 23.1553L34.5421 27.9005L35.9131 26.8418L27.7003 16.4357L26.3293 17.4944L29.8006 21.8927L24.5964 25.9115L21.1252 21.5131L19.7542 22.5719L27.9669 32.978L29.3379 31.9192Z" fill="#181A18"/>
<path d="M43.7716 22.3797L45.3246 21.6125L39.3497 9.77871L37.7967 10.5459L43.7716 22.3797Z" fill="#181A18"/>
<path d="M55.2779 17.5651L53.9755 12.7904L57.1007 11.9563C57.2544 11.9153 57.4423 11.8652 57.6084 11.8025L61.6649 15.8604L63.4239 15.391L61.2886 13.2717C60.0036 11.9865 59.2184 11.1899 58.2326 11.2701L58.2188 10.8164C58.5153 10.8287 58.8289 10.8365 59.2217 10.7317C60.3146 10.44 61.5709 9.13509 60.8918 6.64544C60.1941 4.08757 58.0739 3.09847 55.0512 3.90522L50.1157 5.22246L53.6043 18.0118L55.2779 17.5651ZM53.5522 11.2387L52.2126 6.32756L55.4744 5.45699C57.353 4.95562 58.7375 5.4642 59.1841 7.10123C59.6306 8.73826 58.6926 9.86672 56.814 10.3681L53.5522 11.2387Z" fill="#181A18"/>
<path d="M81.3154 14.0257L81.2894 12.4175L74.0257 12.5322L73.9575 8.30834L80.691 8.20195L80.665 6.5937L73.9315 6.70009L73.8636 2.49388L81.1273 2.37911L81.1013 0.770857L72.1056 0.912993L72.3197 14.1678L81.3154 14.0257Z" fill="#181A18"/>
<path d="M102.428 17.8141L105.153 11.4247C105.771 9.97777 105.905 8.94213 106.03 8.01766L106.48 8.09033C106.324 9.0405 106.301 9.95024 106.356 11.0838L106.81 18.5324L108.294 19.152L114.006 14.277C114.865 13.5247 115.508 12.8737 116.087 12.1005L116.453 12.3683C115.871 13.1021 115.215 13.9199 114.598 15.3668L111.872 21.7562L113.503 22.437L118.705 10.2436L117.025 9.54234L110.198 15.1393C109.344 15.836 108.803 16.4723 108.519 17.1389L108.345 17.5454L107.938 17.3751L108.111 16.9687C108.395 16.3021 108.479 15.4752 108.388 14.3836L107.678 5.64108L105.998 4.9398L100.796 17.1332L102.428 17.8141Z" fill="#181A18"/>
<path d="M128.19 32.704L129.197 31.4494L123.483 26.9637L126.126 23.6687L131.423 27.827L132.43 26.5724L127.133 22.4141L129.765 19.1328L135.48 23.6186L136.486 22.364L129.409 16.8087L121.114 27.1487L128.19 32.704Z" fill="#181A18"/>
<path d="M141.887 39.0876L138.31 34.8209L137.244 35.6952L140.821 39.962L141.887 39.0876Z" fill="#181A18"/>
<ellipse cx="7.49233" cy="64.5561" rx="3.49624" ry="3.45836" fill="#181A18"/>
<ellipse cx="149.673" cy="64.5561" rx="3.49624" ry="3.45836" fill="#181A18"/>
<path d="M77.9999 50.1942L79.4385 70.8778L89.2578 52.5612L82.0671 72.0354L98.569 59.253L83.9924 74.1506L104.324 69.1124L84.8816 76.8574L105.527 80.4348L84.5808 79.688L101.97 91.2622L83.1422 82.1529L94.2689 99.7227L80.8143 83.8258L83.7546 104.353L77.9999 84.4176L72.2452 104.353L75.1854 83.8258L61.7308 99.7227L72.8576 82.1529L54.0295 91.2622L71.4189 79.688L50.4729 80.4348L71.1181 76.8574L51.676 69.1124L72.0073 74.1506L57.4307 59.253L73.9326 72.0354L66.742 52.5612L76.5612 70.8778L77.9999 50.1942Z" fill="#181A18"/>
</svg>
