<svg width="536" height="41" viewBox="0 0 536 41" fill="none" xmlns="http://www.w3.org/2000/svg">
<path d="M73.4192 37.011V24.9807H78.9584C86.8343 24.9807 91.2484 21.3023 91.2484 14.7679C91.2484 8.27669 86.8343 4.55508 78.9584 4.55508H68.3561V37.011H73.4192ZM73.4192 9.18546H78.9584C83.3724 9.18546 86.0121 11.0463 86.0121 14.7679C86.0121 18.4895 83.3724 20.3936 78.9584 20.3936H73.4192V9.18546ZM117.351 37.011V32.3806H100.128V23.0766H116.053V18.4462H100.128V9.18546H117.351V4.55508H95.0646V37.011H117.351ZM120.766 27.0146C120.852 32.7701 126.002 37.4437 134.397 37.4437C142.749 37.4437 147.985 33.4625 147.985 27.7935C147.985 14.3784 127.04 20.8263 127.04 13.3398C127.04 10.3539 129.464 8.44979 134.397 8.44979C139.33 8.44979 141.711 11.1328 141.711 13.686H147.033C146.947 8.49306 142.749 3.86269 134.397 3.86269C126.002 3.86269 121.718 7.93049 121.718 13.3398C121.718 25.8894 142.663 19.4415 142.663 27.7935C142.663 31.0391 139.33 32.8134 134.397 32.8134C129.464 32.8134 126.088 30.1736 126.088 27.0146H120.766ZM157.264 37.011V22.6006H172.28V37.011H177.343V4.55508H172.28V17.9702H157.264V4.55508H152.201V37.011H157.264ZM205.337 37.011V32.3806H188.114V23.0766H204.039V18.4462H188.114V9.18546H205.337V4.55508H183.051V37.011H205.337ZM231.657 27.0146C231.743 32.7701 236.893 37.4437 245.288 37.4437C253.64 37.4437 258.876 33.4625 258.876 27.7935C258.876 14.3784 237.931 20.8263 237.931 13.3398C237.931 10.3539 240.355 8.44979 245.288 8.44979C250.221 8.44979 252.602 11.1328 252.602 13.686H257.924C257.838 8.49306 253.64 3.86269 245.288 3.86269C236.893 3.86269 232.609 7.93049 232.609 13.3398C232.609 25.8894 253.554 19.4415 253.554 27.7935C253.554 31.0391 250.221 32.8134 245.288 32.8134C240.355 32.8134 236.979 30.1736 236.979 27.0146H231.657ZM285.378 37.011V32.3806H268.155V23.0766H284.08V18.4462H268.155V9.18546H285.378V4.55508H263.092V37.011H285.378ZM324.853 37.011C334.806 37.011 340.345 30.9526 340.345 20.783C340.345 10.6135 334.806 4.55508 324.853 4.55508H313.212V37.011H324.853ZM318.275 9.18546H324.853C331.344 9.18546 335.152 13.21 335.152 20.783C335.152 28.3561 331.344 32.3806 324.853 32.3806H318.275V9.18546ZM367.532 37.011V32.3806H350.309V23.0766H366.234V18.4462H350.309V9.18546H367.532V4.55508H345.246V37.011H367.532ZM370.947 27.0146C371.033 32.7701 376.183 37.4437 384.578 37.4437C392.93 37.4437 398.166 33.4625 398.166 27.7935C398.166 14.3784 377.221 20.8263 377.221 13.3398C377.221 10.3539 379.645 8.44979 384.578 8.44979C389.511 8.44979 391.891 11.1328 391.891 13.686H397.214C397.128 8.49306 392.93 3.86269 384.578 3.86269C376.183 3.86269 371.899 7.93049 371.899 13.3398C371.899 25.8894 392.843 19.4415 392.843 27.7935C392.843 31.0391 389.511 32.8134 384.578 32.8134C379.645 32.8134 376.269 30.1736 376.269 27.0146H370.947ZM402.381 37.011H407.445V4.55508H402.381V37.011ZM412.725 20.783C412.725 31.3853 418.351 37.4437 428.088 37.4437C434.319 37.4437 438.863 34.3712 440.724 28.3561L441.935 28.7023C440.983 30.9093 440.551 32.2941 440.551 34.6309V36.4917H444.705V21.6052H429.819V25.5865H438.517C437.478 30.2169 433.713 32.8134 428.564 32.8134C421.813 32.8134 418.048 28.7888 418.048 20.783C418.048 12.7772 421.813 8.75271 429.169 8.75271C434.709 8.75271 437.954 12.1714 438.517 15.1141L443.839 14.8111C443.104 9.74802 438.127 4.12233 429.169 4.12233C418.351 4.12233 412.725 10.1808 412.725 20.783ZM449.967 4.55508V37.011H455.16V22.1245C455.16 18.0135 454.554 15.5901 453.818 13.2533L455.03 12.9503C455.636 14.9842 456.631 16.9316 458.362 19.7012L469.354 37.011H474.72V4.55508H469.527V19.3982C469.527 23.4661 470.089 25.8894 470.825 28.2263L469.613 28.5725C469.007 26.4953 468.012 24.5046 466.324 21.8649L455.333 4.55508H449.967ZM502.723 37.011V32.3806H485.499V23.0766H501.424V18.4462H485.499V9.18546H502.723V4.55508H480.436V37.011H502.723ZM507.652 4.55508V37.011H512.715V24.9807H520.851L527.818 37.011H533.141L529.506 30.7362C527.299 26.928 526 24.6345 523.274 24.2017L523.577 22.99C524.269 23.1631 525.005 23.3795 525.957 23.3795C528.683 23.3795 532.708 21.3889 532.708 14.7679C532.708 8.27669 528.294 4.55508 520.418 4.55508H507.652ZM520.418 9.18546C524.832 9.18546 527.472 11.0463 527.472 14.7679C527.472 18.4895 524.832 20.3936 520.418 20.3936H512.715V9.18546H520.418Z" fill="black"/>
<path d="M0.25 19.0735L7.918 21.6103C8.782 21.9412 9.538 22.0515 10.51 22.0515C11.482 22.0515 12.562 21.8309 13.858 21.5L14.83 24.4779C12.346 25.3603 10.942 26.5735 9.97 27.8971L5.326 34.7353L12.454 40.1397L17.206 33.4118C18.178 31.9779 18.934 30.3235 18.934 27.5662H21.958C21.958 30.3235 22.714 31.9779 23.686 33.4118L28.546 40.25L35.674 34.8456L30.814 28.1176C29.842 26.7941 28.546 25.5809 26.062 24.8088L27.034 21.7206C28.33 22.1618 29.41 22.2721 30.274 22.2721C31.246 22.2721 32.11 22.1618 32.866 21.9412L40.75 19.0735L38.05 10.6912L30.382 13.2279C28.762 13.7794 27.25 14.7721 25.63 16.8677L23.146 14.9926C24.55 13.0074 24.874 11.6838 24.874 9.36765V0.875H16.126V9.25736C16.126 10.8015 16.558 12.7868 18.07 14.9926L15.586 16.8677C14.074 14.8824 12.886 13.8897 10.834 13.2279L2.95 10.5809L0.25 19.0735Z" fill="black"/>
<ellipse cx="299.182" cy="20.8364" rx="3.84663" ry="3.88361" fill="black"/>
<ellipse cx="219.365" cy="20.8364" rx="3.84663" ry="3.88361" fill="black"/>
</svg>
