<svg width="30" height="30" viewBox="0 0 30 30" fill="none" xmlns="http://www.w3.org/2000/svg">
<circle cx="15" cy="15" r="15" fill="#535353"/>
<path d="M9.01058 15.7236C8.5072 15.7262 8.00381 15.7266 7.50085 15.7236C7.21602 15.7219 7.00305 15.5154 7.00004 15.2473C6.9966 14.9724 7.21215 14.7624 7.50558 14.7594C7.76244 14.7564 8.0193 14.7586 8.27615 14.7586C8.53301 14.7586 8.76879 14.7564 9.01532 14.7594C9.30358 14.7629 9.51139 14.9638 9.51397 15.2357C9.51655 15.5149 9.30659 15.7219 9.01058 15.7236V15.7236Z" fill="white"/>
<path d="M9.42254 10.1055C9.27195 9.95367 9.23581 9.77124 9.31239 9.57247C9.38338 9.38789 9.55376 9.27775 9.80287 9.2756C9.8928 9.27302 10.0115 9.32852 10.1105 9.42748C10.4676 9.78329 10.8264 10.1378 11.1792 10.4979C11.3827 10.7053 11.3845 10.9983 11.196 11.1906C11.0076 11.3825 10.709 11.3864 10.5037 11.1859C10.1398 10.8297 9.78093 10.4674 9.42254 10.1055V10.1055Z" fill="white"/>
<path d="M11.1928 19.2896C11.3653 19.4617 11.3946 19.7503 11.2225 19.9315C10.8421 20.3316 10.4459 20.7167 10.0522 21.1043C9.97346 21.1818 9.86633 21.2076 9.75446 21.2067C9.55483 21.2011 9.40295 21.1129 9.31991 20.9301C9.23817 20.7489 9.25064 20.5622 9.38875 20.4189C9.76436 20.0287 10.1468 19.6445 10.5375 19.2693C10.7229 19.0912 11.0155 19.1127 11.1928 19.2896Z" fill="white"/>
<path d="M15.7245 22.2272C15.7245 22.4789 15.7266 22.7306 15.7236 22.9823C15.7197 23.2676 15.5149 23.4797 15.2469 23.4827C14.9715 23.4857 14.7607 23.2706 14.7594 22.9767C14.7568 22.4733 14.7564 21.9704 14.7594 21.467C14.7611 21.1796 14.9647 20.9709 15.2361 20.9688C15.5158 20.9662 15.7206 21.1757 15.7236 21.4722C15.7266 21.7239 15.7245 21.9756 15.7245 22.2272Z" fill="white"/>
<path d="M14.7539 7.64451C14.7423 7.34506 14.8356 7.12778 15.1123 7C15.1179 7.06927 15.0594 7.08777 15.0168 7.11488C14.8782 7.20351 14.8094 7.33387 14.8077 7.4922C14.8012 8.00118 14.7982 8.5106 14.8081 9.01915C14.8137 9.28719 14.9948 9.46187 15.2409 9.46187C15.487 9.46187 15.6686 9.28719 15.6737 9.01915C15.6841 8.5106 15.6811 8.00118 15.6746 7.4922C15.6725 7.33387 15.604 7.20351 15.4655 7.11488C15.4229 7.08777 15.3644 7.06927 15.37 7C15.6462 7.12778 15.7396 7.34506 15.7284 7.64451C15.7116 8.08895 15.7249 8.53469 15.7237 8.97957C15.7228 9.30397 15.5249 9.51823 15.2332 9.51436C14.9501 9.51092 14.759 9.29709 14.7586 8.97957C14.7573 8.53469 14.7707 8.08895 14.7539 7.64451V7.64451Z" fill="white"/>
<path d="M19.3427 15.2453C19.3375 17.5105 17.503 19.3443 15.2407 19.3438C12.9742 19.3438 11.1237 17.4877 11.1388 15.2294C11.1543 12.959 12.9936 11.1283 15.2489 11.1395C17.5185 11.1506 19.3474 12.9852 19.3427 15.2453Z" fill="white"/>
<path d="M21.1015 20.4275C21.1785 20.5058 21.2082 20.6125 21.2056 20.7244C21.2035 20.918 21.1204 21.0686 20.947 21.1546C20.7637 21.2454 20.5697 21.2372 20.4213 21.0948C20.0267 20.7162 19.6386 20.3303 19.2613 19.9344C19.0884 19.7529 19.115 19.4663 19.2867 19.2921C19.4584 19.1183 19.7479 19.0864 19.9282 19.2577C20.3288 19.638 20.7143 20.0338 21.1015 20.4275Z" fill="white"/>
<path d="M19.2838 11.1875C19.1009 10.9978 19.0996 10.7065 19.2945 10.5073C19.6551 10.1394 20.0199 9.77589 20.3873 9.41534C20.5397 9.26605 20.726 9.23421 20.9221 9.31768C21.108 9.39641 21.1966 9.54743 21.2065 9.74663C21.21 9.88302 21.1631 10.0009 21.0684 10.096C20.7057 10.4617 20.3443 10.8283 19.9756 11.188C19.7708 11.3876 19.4696 11.3807 19.2838 11.188V11.1875Z" fill="white"/>
<path d="M23.4827 15.3704C23.3549 15.6466 23.1376 15.74 22.8382 15.7288C22.3937 15.712 21.948 15.7254 21.5027 15.7241C21.1787 15.7237 20.9644 15.5253 20.9683 15.2336C20.9718 14.9505 21.1852 14.7595 21.5027 14.759C21.948 14.7582 22.3937 14.7711 22.8382 14.7543C23.1376 14.7431 23.3553 14.8356 23.4827 15.1127C23.4134 15.1183 23.3949 15.0598 23.3678 15.0172C23.2792 14.8787 23.1488 14.8102 22.9905 14.8081C22.4815 14.8016 21.9721 14.7986 21.4635 14.809C21.1955 14.8141 21.0208 14.9957 21.0208 15.2418C21.0208 15.4879 21.1955 15.669 21.4635 15.6746C21.9721 15.6845 22.4815 15.6815 22.9905 15.675C23.1488 15.6733 23.2792 15.6045 23.3678 15.4659C23.3949 15.4233 23.4134 15.3648 23.4827 15.3704V15.3704Z" fill="white"/>
<path d="M15.7284 7.64451C15.7116 8.08895 15.7249 8.53469 15.7237 8.97957C15.7228 9.30397 15.5249 9.51823 15.2332 9.51436C14.9501 9.51092 14.759 9.29709 14.7586 8.97957C14.7573 8.53469 14.7707 8.08895 14.7539 7.64451C14.7423 7.34506 14.8356 7.12778 15.1123 7H15.37C15.6462 7.12778 15.7396 7.34506 15.7284 7.64451V7.64451Z" fill="white"/>
<path d="M23.4827 15.1127V15.3704C23.3549 15.6466 23.1376 15.74 22.8382 15.7288C22.3937 15.712 21.948 15.7254 21.5027 15.7241C21.1787 15.7237 20.9644 15.5253 20.9683 15.2336C20.9718 14.9505 21.1852 14.7595 21.5027 14.759C21.948 14.7582 22.3937 14.7711 22.8382 14.7543C23.1376 14.7431 23.3553 14.8356 23.4827 15.1127Z" fill="white"/>
<path d="M19.3427 15.2453C19.3375 17.5105 17.503 19.3443 15.2407 19.3438C12.9742 19.3438 11.1237 17.4877 11.1388 15.2294C11.1543 12.959 12.9936 11.1283 15.2489 11.1395C17.5185 11.1506 19.3474 12.9852 19.3427 15.2453Z" fill="white"/>
<path d="M21.2056 20.7244C21.2035 20.918 21.1204 21.0686 20.947 21.1546C20.7637 21.2454 20.5697 21.2372 20.4213 21.0948C20.0267 20.7162 19.6386 20.3303 19.2613 19.9344C19.0884 19.7529 19.115 19.4663 19.2867 19.2921C19.4584 19.1183 19.7479 19.0864 19.9282 19.2577C20.3288 19.638 20.7143 20.0338 21.1015 20.4275C21.1785 20.5058 21.2082 20.6125 21.2056 20.7244V20.7244Z" fill="white"/>
<path d="M21.2065 9.74669C21.21 9.88308 21.1631 10.001 21.0684 10.096C20.7057 10.4618 20.3443 10.8283 19.9756 11.188C19.7708 11.3877 19.4696 11.3808 19.2838 11.188C19.1009 10.9983 19.0996 10.707 19.2945 10.5078C19.6551 10.1399 20.0199 9.77638 20.3873 9.41583C20.5397 9.26653 20.726 9.2347 20.9221 9.31816C21.108 9.3969 21.1966 9.54792 21.2065 9.74712V9.74669Z" fill="white"/>
<path d="M11.196 11.1906C11.0076 11.3825 10.709 11.3864 10.5037 11.1859C10.1398 10.8297 9.78093 10.4674 9.42254 10.1055C9.27195 9.95367 9.23581 9.77124 9.31239 9.57247C9.38338 9.38789 9.55376 9.27775 9.80287 9.2756C9.8928 9.27302 10.0115 9.32852 10.1105 9.42748C10.4676 9.78329 10.8264 10.1378 11.1792 10.4979C11.3827 10.7053 11.3845 10.9983 11.196 11.1906V11.1906Z" fill="white"/>
<path d="M11.2225 19.9315C10.8421 20.3316 10.4459 20.7167 10.0522 21.1043C9.97346 21.1818 9.86633 21.2076 9.75446 21.2067C9.55483 21.2011 9.40295 21.1129 9.31991 20.9301C9.23817 20.7489 9.25064 20.5622 9.38875 20.4189C9.76436 20.0287 10.1468 19.6445 10.5375 19.2693C10.7229 19.0912 11.0155 19.1127 11.1928 19.2896C11.3653 19.4617 11.3946 19.7503 11.2225 19.9315Z" fill="white"/>
<path d="M9.51397 15.2357C9.51655 15.5149 9.30659 15.7219 9.01058 15.7236C8.5072 15.7262 8.00381 15.7266 7.50085 15.7236C7.21602 15.7219 7.00305 15.5154 7.00004 15.2473C6.9966 14.9724 7.21215 14.7624 7.50558 14.7594C7.76244 14.7564 8.0193 14.7586 8.27615 14.7586C8.53301 14.7586 8.76879 14.7564 9.01532 14.7594C9.30358 14.7629 9.51139 14.9638 9.51397 15.2357V15.2357Z" fill="white"/>
<path d="M15.7245 22.2272C15.7245 22.4789 15.7266 22.7306 15.7236 22.9823C15.7197 23.2676 15.5149 23.4797 15.2469 23.4827C14.9715 23.4857 14.7607 23.2706 14.7594 22.9767C14.7568 22.4733 14.7564 21.9704 14.7594 21.467C14.7611 21.1796 14.9647 20.9709 15.2361 20.9688C15.5158 20.9662 15.7206 21.1757 15.7236 21.4722C15.7266 21.7239 15.7245 21.9756 15.7245 22.2272Z" fill="white"/>
</svg>
